<svg width="59" height="59" viewBox="0 0 59 59" fill="none" xmlns="http://www.w3.org/2000/svg">
<rect width="58.9582" height="59" rx="15" fill="#1E1E1E"/>
<g clip-path="url(#clip0_4_13)" filter="url(#filter0_i_4_13)">
<path d="M48.8951 31.0836C48.8791 29.9477 48.4838 28.9734 47.7511 28.2668L47.7411 28.2576C47.4058 27.9403 47.014 27.6889 46.586 27.5163L46.5389 27.4972C44.5234 26.7169 41.7898 27.5931 39.7374 29.6783C38.2344 31.2023 37.3506 33.1378 37.3734 34.8561C37.3883 35.9924 37.7851 36.9673 38.5215 37.6754L38.5296 37.6829C38.8649 38.0001 39.2567 38.2516 39.6847 38.4243C41.7071 39.2425 44.4621 38.3749 46.5469 36.2644C48.0395 34.7387 48.9183 32.8029 48.8951 31.0836Z" fill="#FCB652"/>
<path d="M36.5238 38.6532C35.6491 37.491 34.8225 36.3919 34.5861 34.9228C33.9382 30.8589 33.5467 28.4057 30.4306 27.1449C27.3145 25.8842 25.3263 27.3745 22.0336 29.8441C20.8412 30.7369 19.4811 30.9521 18.0401 31.1808C16.3883 31.4424 14.6816 31.7126 13.4323 33.0977C12.9652 33.5903 12.5967 34.1679 12.3469 34.7993C11.278 37.445 12.4675 40.4309 14.9974 41.4545C16.3028 41.9826 17.8749 42.0921 19.5386 42.2078C21.1382 42.319 22.7919 42.4341 24.0554 42.9453C25.3189 43.4565 26.5842 44.5224 27.8064 45.553C29.0812 46.6227 30.281 47.6348 31.59 48.1644C34.1163 49.1865 37.0416 47.8655 38.1105 45.2197C38.3671 44.5906 38.5009 43.918 38.5046 43.2385C38.5689 41.3722 37.529 39.9899 36.5238 38.6532Z" fill="#FCB652"/>
<path d="M23.6801 21.404C24.1113 22.8568 24.9774 23.9111 26.1188 24.3729C26.2747 24.436 26.4349 24.4874 26.5983 24.5267C29.1205 25.1396 31.7784 22.8327 32.6516 19.2694C33.0197 17.7718 33.008 16.2335 32.6233 14.9407C32.1926 13.4906 31.3248 12.4365 30.1841 11.975C30.0283 11.9119 29.868 11.8605 29.7046 11.8212C27.1825 11.2083 24.5246 13.5152 23.6514 17.0785C23.2834 18.5736 23.2957 20.1105 23.6801 21.404Z" fill="#FCB652"/>
<path d="M35.0052 27.928C35.15 28.0134 35.3009 28.0879 35.4567 28.151C36.5988 28.6131 37.953 28.4571 39.2721 27.7125C40.4461 27.0495 41.5194 25.9518 42.2968 24.6206C44.1431 21.4528 43.8343 17.9456 41.5958 16.6306C41.451 16.5452 41.3 16.4707 41.1442 16.4077C40.003 15.9476 38.6469 16.102 37.3301 16.845C36.1557 17.507 35.0789 18.6049 34.3035 19.9395C32.4572 23.1073 32.7661 26.6145 35.0052 27.928Z" fill="#FCB652"/>
<path d="M17.2886 29.0889L17.3004 29.0894C18.3202 29.0918 19.2815 28.6673 20.0804 27.8611C21.2914 26.6386 22 24.6348 21.9792 22.4943C21.95 19.5317 20.5728 16.9914 18.5525 16.174C18.125 16.0003 17.6686 15.9086 17.2071 15.9037L17.1954 15.9032C16.179 15.8987 15.2165 16.3262 14.4176 17.1323C13.2066 18.3549 12.498 20.3587 12.5188 22.4992C12.548 25.4617 13.9252 28.0021 15.9454 28.8194C16.3724 28.9926 16.828 29.084 17.2886 29.0889V29.0889Z" fill="#FCB652"/>
</g>
<defs>
<filter id="filter0_i_4_13" x="3.03979" y="3.04199" width="52.8785" height="56.916" filterUnits="userSpaceOnUse" color-interpolation-filters="sRGB">
<feFlood flood-opacity="0" result="BackgroundImageFix"/>
<feBlend mode="normal" in="SourceGraphic" in2="BackgroundImageFix" result="shape"/>
<feColorMatrix in="SourceAlpha" type="matrix" values="0 0 0 0 0 0 0 0 0 0 0 0 0 0 0 0 0 0 127 0" result="hardAlpha"/>
<feOffset dy="4"/>
<feGaussianBlur stdDeviation="2"/>
<feComposite in2="hardAlpha" operator="arithmetic" k2="-1" k3="1"/>
<feColorMatrix type="matrix" values="0 0 0 0 0 0 0 0 0 0 0 0 0 0 0 0 0 0 0.25 0"/>
<feBlend mode="normal" in2="shape" result="effect1_innerShadow_4_13"/>
</filter>
<clipPath id="clip0_4_13">
<rect width="40.6197" height="40.6404" fill="white" transform="matrix(0.927 0.375062 -0.374605 0.927184 18.2639 3.04199)"/>
</clipPath>
</defs>
</svg>
