<svg width="34" height="33" viewBox="0 0 34 33" fill="none" xmlns="http://www.w3.org/2000/svg">
<path d="M33.1757 26.0625C33.1757 26.4844 33.0976 27.0352 32.9415 27.7148C32.7854 28.3945 32.6214 28.9297 32.4497 29.3203C32.1218 30.1016 31.1693 30.9297 29.5923 31.8047C28.1246 32.6016 26.6725 33 25.236 33C24.8145 33 24.4046 32.9727 24.0064 32.918C23.6083 32.8633 23.1594 32.7656 22.6597 32.625C22.1601 32.4844 21.7893 32.3711 21.5472 32.2852C21.3052 32.1992 20.8719 32.0391 20.2474 31.8047C19.6228 31.5703 19.2403 31.4297 19.0998 31.3828C17.5696 30.8359 16.2034 30.1875 15.0011 29.4375C13.0025 28.2031 10.9376 26.5195 8.80627 24.3867C6.67497 22.2539 4.99257 20.1875 3.75907 18.1875C3.0096 16.9844 2.36163 15.6172 1.81514 14.0859C1.7683 13.9453 1.62777 13.5625 1.39356 12.9375C1.15935 12.3125 0.99931 11.8789 0.913434 11.6367C0.827557 11.3945 0.714356 11.0234 0.573831 10.5234C0.433306 10.0234 0.335719 9.57422 0.28107 9.17578C0.226421 8.77734 0.199097 8.36719 0.199097 7.94531C0.199097 6.50781 0.597252 5.05469 1.39356 3.58594C2.26794 2.00781 3.09548 1.05469 3.87618 0.726562C4.26652 0.554688 4.8013 0.390625 5.48051 0.234375C6.15971 0.078125 6.7101 0 7.13168 0C7.35027 0 7.51422 0.0234375 7.62352 0.0703125C7.90457 0.164062 8.31834 0.757812 8.86483 1.85156C9.03658 2.14844 9.27079 2.57031 9.56745 3.11719C9.86412 3.66406 10.1374 4.16016 10.3872 4.60547C10.637 5.05078 10.879 5.46875 11.1132 5.85938C11.1601 5.92188 11.2967 6.11719 11.5231 6.44531C11.7495 6.77344 11.9173 7.05078 12.0266 7.27734C12.1359 7.50391 12.1906 7.72656 12.1906 7.94531C12.1906 8.25781 11.9681 8.64844 11.5231 9.11719C11.0781 9.58594 10.5941 10.0156 10.071 10.4062C9.54793 10.7969 9.0639 11.2109 8.61891 11.6484C8.17391 12.0859 7.95141 12.4453 7.95141 12.7266C7.95141 12.8672 7.99045 13.043 8.06852 13.2539C8.14658 13.4648 8.21294 13.625 8.26759 13.7344C8.32224 13.8438 8.43154 14.0312 8.59549 14.2969C8.75943 14.5625 8.84921 14.7109 8.86483 14.7422C10.0515 16.8828 11.4099 18.7188 12.9401 20.25C14.4702 21.7812 16.3049 23.1406 18.444 24.3281C18.4752 24.3438 18.6235 24.4336 18.889 24.5977C19.1544 24.7617 19.3418 24.8711 19.4511 24.9258C19.5604 24.9805 19.7204 25.0469 19.9312 25.125C20.142 25.2031 20.3176 25.2422 20.4582 25.2422C20.7392 25.2422 21.0983 25.0195 21.5355 24.5742C21.9727 24.1289 22.3865 23.6445 22.7768 23.1211C23.1672 22.5977 23.5966 22.1133 24.065 21.668C24.5334 21.2227 24.9237 21 25.236 21C25.4546 21 25.6771 21.0547 25.9035 21.1641C26.1299 21.2734 26.4071 21.4414 26.735 21.668C27.0629 21.8945 27.258 22.0312 27.3205 22.0781C27.7108 22.3125 28.1285 22.5547 28.5735 22.8047C29.0185 23.0547 29.5142 23.3281 30.0607 23.625C30.6072 23.9219 31.0288 24.1562 31.3255 24.3281C32.4184 24.875 33.0118 25.2891 33.1054 25.5703C33.1523 25.6797 33.1757 25.8438 33.1757 26.0625Z" fill="#1E1E1E"/>
</svg>
